<svg xmlns="http://www.w3.org/2000/svg" width="109" height="109" viewBox="0 0 109 109">
  <g id="Group_118" data-name="Group 118" transform="translate(-906 -174)">
    <g id="Group_115" data-name="Group 115">
      <path id="Polygon_5" data-name="Polygon 5" d="M59.771,10.448a7.067,7.067,0,0,1,12.19,3.266h0a7.067,7.067,0,0,0,9.13,5.271h0a7.067,7.067,0,0,1,8.924,8.924h0a7.067,7.067,0,0,0,5.271,9.13h0a7.067,7.067,0,0,1,3.266,12.19h0a7.067,7.067,0,0,0,0,10.542h0a7.067,7.067,0,0,1-3.266,12.19h0a7.067,7.067,0,0,0-5.271,9.13h0a7.067,7.067,0,0,1-8.924,8.924h0a7.067,7.067,0,0,0-9.13,5.271h0a7.067,7.067,0,0,1-12.19,3.266h0a7.067,7.067,0,0,0-10.542,0h0a7.067,7.067,0,0,1-12.19-3.266h0a7.067,7.067,0,0,0-9.13-5.271h0a7.067,7.067,0,0,1-8.924-8.924h0a7.067,7.067,0,0,0-5.271-9.13h0a7.067,7.067,0,0,1-3.266-12.19h0a7.067,7.067,0,0,0,0-10.542h0a7.067,7.067,0,0,1,3.266-12.19h0a7.067,7.067,0,0,0,5.271-9.13h0a7.067,7.067,0,0,1,8.924-8.924h0a7.067,7.067,0,0,0,9.13-5.271h0a7.067,7.067,0,0,1,12.19-3.266h0a7.067,7.067,0,0,0,10.542,0Z" transform="translate(906 174)" fill="#f0494c"/>
      <circle id="Ellipse_7" data-name="Ellipse 7" cx="30" cy="30" r="30" transform="translate(931 199)" fill="#fff"/>
    </g>
    <path id="Path_6" data-name="Path 6" d="M1177.195,3391.376l6.714,9.736,17.793-14.1" transform="translate(-228.695 -3165.512)" fill="none" stroke="#f0494c" stroke-linecap="round" stroke-width="8"/>
  </g>
</svg>
